<svg width="73" height="17" viewBox="0 0 73 17" fill="none" xmlns="http://www.w3.org/2000/svg">
<path d="M72.6278 16.7531C72.8969 16.8152 73.1653 16.6474 73.2274 16.3784L74.2393 11.9936C74.3014 11.7245 74.1336 11.4561 73.8645 11.394C73.5955 11.3319 73.327 11.4997 73.2649 11.7688L72.3655 15.6663L68.4679 14.7669C68.1988 14.7048 67.9304 14.8726 67.8683 15.1416C67.8062 15.4107 67.974 15.6792 68.243 15.7413L72.6278 16.7531ZM0.893098 6.242C1.04501 6.19322 1.19846 6.14442 1.35342 6.09562L1.05302 5.1418C0.896297 5.19116 0.741071 5.24053 0.587371 5.28988L0.893098 6.242ZM2.3011 5.80288C2.61105 5.70896 2.9264 5.61516 3.24693 5.52159L2.96672 4.56165C2.64296 4.65616 2.32436 4.75093 2.01111 4.84585L2.3011 5.80288ZM4.20282 5.24765C4.51543 5.1597 4.83249 5.07207 5.15385 4.98486L4.89195 4.01977C4.56764 4.10778 4.24759 4.19623 3.93199 4.28502L4.20282 5.24765ZM6.11382 4.72902C6.42939 4.64643 6.74874 4.56432 7.07171 4.48278L6.82694 3.5132C6.50117 3.59544 6.17901 3.67827 5.86062 3.7616L6.11382 4.72902ZM8.03349 4.24434C8.35221 4.16675 8.67416 4.08979 8.99921 4.01353L8.7708 3.03996C8.44304 3.11686 8.11839 3.19447 7.79697 3.27271L8.03349 4.24434ZM9.96167 3.79188C10.2835 3.71914 10.6082 3.64714 10.9355 3.57596L10.723 2.5988C10.393 2.67056 10.0657 2.74314 9.74122 2.81648L9.96167 3.79188ZM11.8982 3.37061C12.2215 3.30299 12.5473 3.2362 12.8754 3.17032L12.6785 2.18989C12.3478 2.2563 12.0194 2.32362 11.6935 2.39179L11.8982 3.37061ZM13.8426 2.98007C14.1657 2.91785 14.4908 2.85655 14.8179 2.79623L14.6366 1.81281C14.3069 1.8736 13.9791 1.9354 13.6535 1.99812L13.8426 2.98007ZM15.7944 2.62019C16.1173 2.56329 16.4421 2.50739 16.7684 2.45255L16.6027 1.46638C16.2737 1.52166 15.9464 1.578 15.6209 1.63536L15.7944 2.62019ZM17.7525 2.29127C18.0755 2.23966 18.4001 2.18912 18.7261 2.13971L18.5763 1.151C18.2476 1.20082 17.9204 1.25177 17.5947 1.3038L17.7525 2.29127ZM19.708 1.99495C20.0341 1.94824 20.3614 1.90269 20.69 1.85837L20.5563 0.867344C20.225 0.912041 19.8949 0.957965 19.5662 1.00506L19.708 1.99495ZM21.6707 1.73018C21.9987 1.68869 22.3278 1.64844 22.6579 1.6095L22.5408 0.616385C22.2078 0.655658 21.8759 0.696243 21.5451 0.738087L21.6707 1.73018ZM23.6392 1.49797C23.9669 1.46213 24.2955 1.42762 24.6249 1.39447L24.5248 0.399492C24.1925 0.432931 23.861 0.467749 23.5305 0.503897L23.6392 1.49797ZM25.6122 1.2995C25.9398 1.26944 26.2683 1.24077 26.5973 1.21354L26.5148 0.216945C26.1828 0.244422 25.8514 0.273352 25.5208 0.303684L25.6122 1.2995ZM27.5863 1.13622C27.9148 1.11205 28.2439 1.08935 28.5735 1.06818L28.5094 0.0702343C28.1767 0.09161 27.8445 0.114521 27.5129 0.138919L27.5863 1.13622ZM29.5617 1.00937C29.8914 0.991324 30.2214 0.974843 30.5518 0.959974L30.5068 -0.0390149C30.1732 -0.0239982 29.8399 -0.0073557 29.5071 0.010864L29.5617 1.00937ZM31.5401 0.920376C31.8698 0.908808 32.1997 0.898886 32.5297 0.890659L32.5048 -0.10903C32.1713 -0.100718 31.838 -0.0906944 31.505 -0.0790091L31.5401 0.920376ZM33.5195 0.871115C33.8493 0.866327 34.1792 0.863274 34.509 0.862004L34.5051 -0.137988C34.1717 -0.136704 33.8383 -0.133619 33.505 -0.12878L33.5195 0.871115ZM35.4983 0.863589C35.8283 0.865932 36.1583 0.870108 36.488 0.876163L36.5064 -0.123668C36.1728 -0.129793 35.8392 -0.134016 35.5054 -0.136386L35.4983 0.863589ZM37.4768 0.900017C37.8064 0.909885 38.1357 0.921682 38.4647 0.935454L38.5065 -0.0636711C38.1735 -0.0776115 37.8402 -0.08955 37.5067 -0.0995353L37.4768 0.900017ZM39.4533 0.982891C39.7824 1.00072 40.1111 1.02058 40.4393 1.04253L40.5061 0.0447546C40.1736 0.0225262 39.8406 0.00240936 39.5073 -0.0156452L39.4533 0.982891ZM41.4255 1.11488C41.7544 1.14119 42.0828 1.16965 42.4105 1.20031L42.5037 0.204656C42.1714 0.173574 41.8386 0.144728 41.5052 0.118067L41.4255 1.11488ZM43.3916 1.29892C43.7201 1.33427 44.048 1.37189 44.3749 1.41184L44.4962 0.41922C44.1644 0.37868 43.8318 0.34051 43.4985 0.304658L43.3916 1.29892ZM45.3537 1.53877C45.6801 1.58358 46.0055 1.63078 46.33 1.68042L46.4812 0.69192C46.1516 0.641495 45.8211 0.593561 45.4897 0.548066L45.3537 1.53877ZM47.3059 1.83768C47.6302 1.89261 47.9533 1.95005 48.2752 2.01005L48.4584 1.02699C48.131 0.965957 47.8025 0.907555 47.4729 0.851729L47.3059 1.83768ZM49.245 2.1994C49.5677 2.26532 49.8892 2.3339 50.2093 2.40522L50.4267 1.42915C50.1008 1.35653 49.7736 1.28671 49.4451 1.21962L49.245 2.1994ZM51.1675 2.62794C51.4883 2.70564 51.8076 2.78618 52.1253 2.8696L52.3793 1.9024C52.0553 1.81733 51.7298 1.73522 51.4029 1.65604L51.1675 2.62794ZM53.0733 3.1286C53.3903 3.2186 53.7055 3.3116 54.019 3.40763L54.3119 2.45151C53.9918 2.35342 53.6699 2.25848 53.3464 2.16662L53.0733 3.1286ZM54.957 3.70602C55.2685 3.80885 55.5781 3.9148 55.8857 4.02394L56.2201 3.08152C55.9055 2.96986 55.5889 2.86151 55.2704 2.7564L54.957 3.70602ZM56.8108 4.36426C57.1171 4.48099 57.4211 4.60101 57.7229 4.72439L58.1013 3.79876C57.792 3.67231 57.4806 3.54936 57.167 3.42984L56.8108 4.36426ZM58.629 5.108C58.9294 5.23968 59.2275 5.37486 59.523 5.51358L59.9479 4.60834C59.6445 4.46591 59.3386 4.32718 59.0304 4.19209L58.629 5.108ZM60.4047 5.94183C60.698 6.08917 60.9886 6.24018 61.2764 6.39492L61.7499 5.51415C61.4539 5.35497 61.1551 5.19969 60.8537 5.04827L60.4047 5.94183ZM62.1314 6.87041C62.4156 7.03381 62.6968 7.20105 62.975 7.37219L63.499 6.52044C63.2122 6.34406 62.9225 6.17177 62.6299 6.00353L62.1314 6.87041ZM63.801 7.89774C64.0739 8.07728 64.3437 8.2608 64.6102 8.44838L65.1857 7.63061C64.9106 7.43695 64.6322 7.24754 64.3507 7.06234L63.801 7.89774ZM65.4016 9.02452C65.662 9.22068 65.9192 9.42097 66.1729 9.62546L66.8004 8.84687C66.5381 8.63542 66.2723 8.42838 66.0031 8.22569L65.4016 9.02452ZM66.9236 10.2516C67.1704 10.4645 67.4136 10.6817 67.6532 10.9033L68.3321 10.1691C68.084 9.93971 67.8323 9.71489 67.577 9.49454L66.9236 10.2516ZM68.3581 11.5782C68.5891 11.8072 68.8165 12.0406 69.04 12.2784L69.7686 11.5935C69.537 11.3471 69.3014 11.1053 69.0621 10.868L68.3581 11.5782ZM69.6965 13.0021C69.91 13.246 70.1197 13.4943 70.3255 13.7471L71.101 13.1157C70.8876 12.8537 70.6702 12.5963 70.449 12.3435L69.6965 13.0021ZM70.9312 14.5189C71.1257 14.7762 71.3165 15.0379 71.5032 15.304L72.3218 14.7296C72.1282 14.4537 71.9305 14.1825 71.7288 13.9157L70.9312 14.5189ZM72.0513 16.1153C72.1406 16.2527 72.2289 16.3912 72.3162 16.5309L73.1642 16.0009C73.0738 15.8562 72.9823 15.7127 72.8897 15.5703L72.0513 16.1153Z" fill="#D32C26"/>
</svg>
