<svg width="74" height="76" viewBox="0 0 74 76" fill="none" xmlns="http://www.w3.org/2000/svg">
<path d="M73.5613 1.14882C73.7729 0.97144 73.8007 0.656078 73.6233 0.444442L70.7327 -3.00437C70.5553 -3.21601 70.24 -3.24377 70.0283 -3.06639C69.8167 -2.88901 69.7889 -2.57365 69.9663 -2.36201L72.5357 0.703601L69.4701 3.27304C69.2585 3.45043 69.2307 3.76579 69.4081 3.97742C69.5855 4.18906 69.9009 4.21683 70.1125 4.03945L73.5613 1.14882ZM0.738564 75.7261C0.725852 75.5657 0.713614 75.4045 0.70186 75.2423L-0.295524 75.3146C-0.283608 75.479 -0.2712 75.6425 -0.258309 75.8051L0.738564 75.7261ZM0.637197 74.2586C0.617618 73.9273 0.600037 73.5925 0.584517 73.2544L-0.414431 73.3003C-0.398711 73.6427 -0.380901 73.9818 -0.361062 74.3176L0.637197 74.2586ZM0.545604 72.2727C0.534646 71.9449 0.525612 71.6143 0.518558 71.2809L-0.481219 71.3021C-0.474078 71.6395 -0.464933 71.9742 -0.453838 72.3061L0.545604 72.2727ZM0.503417 70.276C0.500489 69.9514 0.499431 69.6243 0.500289 69.295L-0.499708 69.2924C-0.500576 69.6256 -0.499505 69.9565 -0.496542 70.285L0.503417 70.276ZM0.508662 68.3002C0.513371 67.9686 0.52002 67.6348 0.528655 67.2989L-0.471015 67.2732C-0.479749 67.6129 -0.486474 67.9505 -0.491237 68.286L0.508662 68.3002ZM0.55945 66.3156C0.571614 65.9859 0.585692 65.6544 0.601727 65.3212L-0.397117 65.2732C-0.413332 65.6101 -0.427568 65.9453 -0.43987 66.2787L0.55945 66.3156ZM0.655417 64.322C0.674768 63.9958 0.695996 63.6682 0.719141 63.339L-0.278396 63.2689C-0.301797 63.6017 -0.323261 63.933 -0.342827 64.2628L0.655417 64.322ZM0.794362 62.3474C0.821324 62.0161 0.850234 61.6834 0.88113 61.3495L-0.114617 61.2574C-0.145853 61.595 -0.175082 61.9313 -0.202342 62.2662L0.794362 62.3474ZM0.977238 60.3689C1.01119 60.0409 1.04706 59.7118 1.0849 59.3816L0.0913992 59.2678C0.0531457 59.6016 0.0168752 59.9344 -0.0174486 60.266L0.977238 60.3689ZM1.20432 58.388C1.24528 58.0625 1.28814 57.736 1.33296 57.4087L0.34221 57.2731C0.296894 57.604 0.25355 57.934 0.212146 58.2631L1.20432 58.388ZM1.47293 56.4269C1.52155 56.0988 1.57215 55.77 1.62475 55.4405L0.637248 55.2828C0.584057 55.6161 0.532898 55.9486 0.483736 56.2803L1.47293 56.4269ZM1.78655 54.4618C1.84207 54.1373 1.89954 53.8123 1.95901 53.4866L0.975286 53.307C0.91514 53.6363 0.857013 53.9651 0.800873 54.2932L1.78655 54.4618ZM2.14344 52.5083C2.20662 52.1833 2.2718 51.8578 2.33902 51.532L1.35964 51.3299C1.29165 51.6595 1.22571 51.9887 1.16181 52.3174L2.14344 52.5083ZM2.54441 50.5644C2.61488 50.2416 2.68738 49.9184 2.76193 49.595L1.78748 49.3704C1.71206 49.6976 1.63871 50.0246 1.56742 50.3512L2.54441 50.5644ZM2.99174 48.6242C3.06944 48.3044 3.14916 47.9845 3.23095 47.6645L2.26208 47.4169C2.17931 47.7408 2.09864 48.0645 2.02002 48.3881L2.99174 48.6242ZM3.48224 46.7051C3.56807 46.3852 3.65599 46.0653 3.74602 45.7454L2.78342 45.4745C2.69228 45.7983 2.60329 46.1221 2.51641 46.4459L3.48224 46.7051ZM4.02087 44.7913C4.11407 44.4751 4.20936 44.159 4.30677 43.8431L3.35116 43.5485C3.25252 43.8684 3.15603 44.1885 3.06167 44.5086L4.02087 44.7913ZM4.60539 42.8958C4.70702 42.5803 4.8108 42.2651 4.91676 41.9501L3.96894 41.6312C3.86162 41.9503 3.7565 42.2696 3.65357 42.5891L4.60539 42.8958ZM5.23821 41.0144C5.34751 40.7029 5.45897 40.3916 5.57262 40.0808L4.63343 39.7374C4.51826 40.0524 4.40533 40.3677 4.29459 40.6834L5.23821 41.0144ZM5.92015 39.1495C6.03769 38.8408 6.15743 38.5326 6.27939 38.2249L5.34974 37.8565C5.22611 38.1684 5.10475 38.4808 4.98562 38.7936L5.92015 39.1495ZM6.65059 37.3067C6.77655 37.0011 6.90474 36.6961 7.03518 36.3918L6.11604 35.9979C5.98376 36.3065 5.85378 36.6157 5.72607 36.9255L6.65059 37.3067ZM7.43324 35.4808C7.5673 35.1798 7.70361 34.8796 7.84219 34.58L6.93461 34.1601C6.79401 34.464 6.65574 34.7687 6.51976 35.0739L7.43324 35.4808ZM8.2648 33.6836C8.40796 33.3855 8.55343 33.0883 8.70122 32.7918L7.8063 32.3456C7.65629 32.6465 7.50867 32.9481 7.3634 33.2506L8.2648 33.6836ZM9.15022 31.9079C9.3017 31.6151 9.45551 31.3232 9.61167 31.0323L8.73056 30.5594C8.572 30.8548 8.41584 31.1511 8.26206 31.4484L9.15022 31.9079ZM10.0872 30.1624C10.2481 29.8734 10.4113 29.5854 10.577 29.2984L9.71095 28.7985C9.54267 29.0899 9.37686 29.3825 9.21347 29.676L10.0872 30.1624ZM11.0782 28.4459C11.2475 28.163 11.4192 27.8812 11.5934 27.6005L10.7437 27.0733C10.5667 27.3585 10.3922 27.6449 10.2201 27.9323L11.0782 28.4459ZM12.1231 26.762C12.3017 26.4844 12.4827 26.2079 12.6662 25.9327L11.8342 25.378C11.6476 25.6578 11.4636 25.9388 11.2821 26.2211L12.1231 26.762ZM13.2213 25.1149C13.4088 24.8436 13.5987 24.5736 13.7911 24.3049L12.9782 23.7227C12.7824 23.9959 12.5893 24.2705 12.3986 24.5464L13.2213 25.1149ZM14.3758 23.5031C14.5721 23.2388 14.7708 22.9758 14.972 22.7143L14.1795 22.1045C13.9747 22.3706 13.7726 22.6381 13.5729 22.907L14.3758 23.5031ZM15.5816 21.9362C15.7873 21.6783 15.9955 21.4219 16.2062 21.167L15.4356 20.5298C15.2211 20.7892 15.0092 21.0502 14.7998 21.3127L15.5816 21.9362ZM16.8458 20.4075C17.0594 20.1583 17.2755 19.9107 17.4942 19.6647L16.7467 19.0004C16.5241 19.2508 16.3041 19.5029 16.0866 19.7566L16.8458 20.4075ZM18.1577 18.9317C18.3814 18.689 18.6077 18.4479 18.8365 18.2086L18.1138 17.5175C17.8807 17.7613 17.6503 18.0067 17.4224 18.2539L18.1577 18.9317ZM19.5276 17.4991C19.7586 17.2662 19.9922 17.035 20.2283 16.8057L19.5315 16.0884C19.291 16.3221 19.053 16.5576 18.8177 16.7948L19.5276 17.4991ZM20.9443 16.1229C21.1856 15.8971 21.4294 15.6731 21.6758 15.451L21.0062 14.7082C20.7552 14.9345 20.5067 15.1627 20.261 15.3928L20.9443 16.1229ZM22.4154 14.7967C22.663 14.5818 22.9132 14.3687 23.1659 14.1575L22.5247 13.3902C22.2671 13.6054 22.0122 13.8225 21.7599 14.0415L22.4154 14.7967ZM23.9318 13.5297C24.1897 13.3223 24.4501 13.1169 24.7132 12.9135L24.1015 12.1224C23.8334 12.3297 23.5679 12.5391 23.3052 12.7504L23.9318 13.5297ZM25.4973 12.3189C25.7603 12.1233 26.0259 11.9297 26.294 11.738L25.7125 10.9245C25.4392 11.1198 25.1686 11.3171 24.9006 11.5164L25.4973 12.3189ZM27.106 11.1691C27.3792 10.9815 27.655 10.796 27.9334 10.6125L27.3831 9.77753C27.0994 9.96448 26.8184 10.1536 26.54 10.3447L27.106 11.1691ZM28.7573 10.0805C29.0342 9.90528 29.3136 9.73214 29.5955 9.56107L29.0767 8.70617C28.7895 8.88047 28.5048 9.05688 28.2227 9.23537L28.7573 10.0805ZM30.4488 9.05413C30.7357 8.88725 31.0252 8.72249 31.3172 8.55988L30.8307 7.6862C30.5332 7.85184 30.2383 8.01969 29.946 8.1897L30.4488 9.05413ZM32.1765 8.09157C32.4654 7.93753 32.7567 7.78556 33.0504 7.63571L32.596 6.74492C32.2969 6.89752 32.0002 7.05229 31.706 7.20918L32.1765 8.09157ZM33.9391 7.19253C34.2378 7.04694 34.5389 6.9035 34.8425 6.76225L34.4208 5.85556C34.1116 5.99935 33.805 6.14539 33.5009 6.29363L33.9391 7.19253ZM35.7338 6.35718C36.0325 6.22455 36.3336 6.09401 36.637 5.96559L36.2472 5.04466C35.9384 5.17535 35.632 5.30821 35.328 5.44321L35.7338 6.35718ZM37.5544 5.58673C37.8626 5.46258 38.1732 5.34059 38.4862 5.2208L38.1287 4.28687C37.8104 4.40873 37.4944 4.53284 37.1808 4.65915L37.5544 5.58673ZM39.4077 4.87697C39.714 4.76561 40.0226 4.65632 40.3334 4.54913L40.0074 3.60377C39.6913 3.71276 39.3776 3.8239 39.066 3.93715L39.4077 4.87697ZM41.2726 4.23388C41.588 4.13091 41.9056 4.03008 42.2255 3.93141L41.9308 2.97582C41.6057 3.07611 41.2828 3.1786 40.9623 3.28326L41.2726 4.23388ZM43.1783 3.64595C43.4899 3.55532 43.8036 3.46672 44.1194 3.38016L43.8551 2.41572C43.5343 2.50365 43.2156 2.59367 42.899 2.68575L43.1783 3.64595ZM45.0734 3.12665C45.3935 3.04422 45.7158 2.96387 46.0403 2.88561L45.8058 1.91349C45.4764 1.99293 45.1491 2.07453 44.824 2.15824L45.0734 3.12665ZM47.0202 2.6572C47.3373 2.58581 47.6565 2.5164 47.9778 2.449L47.7724 1.47031C47.4465 1.5387 47.1225 1.60914 46.8006 1.68161L47.0202 2.6572ZM48.9396 2.25441C49.2623 2.19154 49.5869 2.13067 49.9136 2.07183L49.7363 1.08767C49.405 1.14735 49.0757 1.20909 48.7484 1.27287L48.9396 2.25441ZM50.8998 1.9014C51.2295 1.84681 51.5612 1.79425 51.895 1.74376L51.7454 0.755006C51.4071 0.806194 51.0707 0.859478 50.7364 0.914834L50.8998 1.9014ZM52.8585 1.60453C53.1815 1.56002 53.5064 1.51742 53.8332 1.47675L53.7097 0.484402C53.3786 0.525612 53.0494 0.568781 52.722 0.613888L52.8585 1.60453ZM54.8193 1.36053C55.1499 1.32374 55.4824 1.28889 55.8167 1.25602L55.7189 0.260819C55.3803 0.294109 55.0435 0.3294 54.7087 0.366671L54.8193 1.36053ZM56.8212 1.16371C57.1428 1.13621 57.4661 1.1105 57.7912 1.08662L57.7179 0.0893065C57.3889 0.113482 57.0616 0.139502 56.736 0.167349L56.8212 1.16371ZM58.7716 1.02044C59.1001 1.00022 59.4304 0.981827 59.7625 0.965295L59.7128 -0.0334676C59.3768 -0.0167419 59.0426 0.00186404 58.7101 0.0223324L58.7716 1.02044ZM60.7639 0.921287C61.0995 0.908486 61.4369 0.89756 61.776 0.888527L61.7494 -0.111119C61.4064 -0.101984 61.0652 -0.0909343 60.7258 -0.0779865L60.7639 0.921287ZM62.7538 0.867821C63.0788 0.862702 63.4053 0.859303 63.7335 0.85764L63.7284 -0.142347C63.3967 -0.140666 63.0666 -0.13723 62.7381 -0.132055L62.7538 0.867821ZM64.7228 0.85787C65.0542 0.859693 65.3873 0.863266 65.7219 0.868606L65.7379 -0.131266C65.3998 -0.136662 65.0632 -0.140273 64.7283 -0.142115L64.7228 0.85787ZM66.7307 0.889942C67.0627 0.898676 67.3963 0.90913 67.7315 0.921319L67.7678 -0.0780202C67.4293 -0.0903307 67.0924 -0.10089 66.757 -0.109712L66.7307 0.889942ZM68.705 0.961414C69.031 0.9764 69.3585 0.993012 69.6874 1.01126L69.7428 0.0127977C69.4107 -0.00562672 69.0801 -0.0223986 68.7509 -0.0375306L68.705 0.961414ZM70.6787 1.07094C71.0106 1.09248 71.3441 1.11568 71.679 1.14054L71.753 0.143279C71.415 0.118193 71.0785 0.0947848 70.7435 0.0730423L70.6787 1.07094ZM72.6882 1.22012C72.8572 1.23422 73.0265 1.24875 73.1963 1.26369L73.284 0.267549C73.1127 0.25247 72.9419 0.237816 72.7713 0.223585L72.6882 1.22012Z" fill="#D32C26"/>
</svg>
