<svg width="73" height="19" viewBox="0 0 73 19" fill="none" xmlns="http://www.w3.org/2000/svg">
<path d="M72.9051 7.23736C73.1658 7.14632 73.3033 6.86117 73.2123 6.60047L71.7287 2.35206C71.6377 2.09135 71.3525 1.95381 71.0918 2.04485C70.8311 2.13589 70.6936 2.42104 70.7846 2.68174L72.1033 6.45811L68.327 7.77684C68.0663 7.86788 67.9287 8.15302 68.0198 8.41372C68.1108 8.67443 68.396 8.81197 68.6567 8.72093L72.9051 7.23736ZM0.605003 18.6073C0.713997 18.491 0.825262 18.3739 0.938783 18.256L0.218487 17.5624C0.10191 17.6834 -0.0124373 17.8038 -0.124534 17.9233L0.605003 18.6073ZM1.64272 17.5439C1.87187 17.3178 2.10877 17.0895 2.35331 16.8591L1.66767 16.1312C1.41762 16.3667 1.17518 16.6004 0.940449 16.832L1.64272 17.5439ZM3.08404 16.1858C3.3284 15.9654 3.57944 15.7436 3.83706 15.5206L3.18269 14.7645C2.91995 14.9918 2.66378 15.2182 2.41429 15.4432L3.08404 16.1858ZM4.58891 14.8826C4.84166 14.6722 5.10009 14.461 5.36412 14.2494L4.73873 13.4691C4.46989 13.6846 4.20666 13.8996 3.94912 14.114L4.58891 14.8826ZM6.14523 13.6348C6.40505 13.434 6.6698 13.2331 6.93942 13.0321L6.3418 12.2303C6.06757 12.4347 5.79822 12.6392 5.53382 12.8435L6.14523 13.6348ZM7.74539 12.4419C8.01174 12.2503 8.28246 12.0589 8.55749 11.8678L7.98695 11.0465C7.70741 11.2407 7.43221 11.4353 7.1614 11.6302L7.74539 12.4419ZM9.38438 11.3033C9.65697 11.1204 9.93347 10.9381 10.2139 10.7564L9.67004 9.91718C9.38519 10.1018 9.10425 10.287 8.82728 10.4729L9.38438 11.3033ZM11.0588 10.2183C11.3374 10.044 11.6196 9.87041 11.9053 9.69776L11.3881 8.84189C11.0979 9.01724 10.8113 9.19353 10.5283 9.37062L11.0588 10.2183ZM12.766 9.18673C13.0505 9.02081 13.3382 8.85589 13.6293 8.6921L13.1388 7.82064C12.8433 7.98696 12.5511 8.15443 12.2622 8.32292L12.766 9.18673ZM14.5041 8.20854C14.7943 8.05104 15.0875 7.89474 15.3838 7.73977L14.9203 6.85368C14.6195 7.01103 14.3217 7.16973 14.0271 7.32965L14.5041 8.20854ZM16.2713 7.28409C16.5671 7.13508 16.8657 6.98747 17.1671 6.84136L16.7309 5.94151C16.4249 6.08986 16.1217 6.23974 15.8214 6.39102L16.2713 7.28409ZM18.0662 6.41394C18.3674 6.27358 18.6712 6.13478 18.9776 5.99764L18.5692 5.08487C18.258 5.22411 17.9495 5.36504 17.6438 5.50755L18.0662 6.41394ZM19.8873 5.59888C20.193 5.46763 20.5012 5.33809 20.8119 5.21036L20.4316 4.28547C20.1161 4.41517 19.8032 4.54671 19.4928 4.67998L19.8873 5.59888ZM21.7331 4.83985C22.0418 4.71842 22.3529 4.59882 22.6662 4.48115L22.3147 3.54498C21.9964 3.66448 21.6806 3.78594 21.367 3.90925L21.7331 4.83985ZM23.6022 4.13792C23.9137 4.02644 24.2273 3.91691 24.5431 3.8094L24.2208 2.86276C23.9001 2.97195 23.5815 3.0832 23.2652 3.19641L23.6022 4.13792ZM25.4933 3.49421C25.8071 3.39283 26.123 3.29349 26.4409 3.19627L26.1485 2.23999C25.8256 2.33874 25.5047 2.43964 25.1859 2.54262L25.4933 3.49421ZM27.4007 2.91109C27.718 2.81953 28.0372 2.73012 28.3584 2.64294L28.0964 1.67787C27.7701 1.76644 27.4458 1.85728 27.1234 1.95029L27.4007 2.91109ZM29.3232 2.38926C29.6449 2.30741 29.9685 2.22782 30.2939 2.15057L30.0629 1.17761C29.7323 1.2561 29.4035 1.33697 29.0766 1.42013L29.3232 2.38926ZM31.2628 1.92875C31.5875 1.85714 31.914 1.7879 32.2421 1.7211L32.0427 0.741193C31.7092 0.80908 31.3774 0.879444 31.0475 0.952206L31.2628 1.92875ZM33.2179 1.53066C33.5436 1.46985 33.8708 1.41146 34.1996 1.35557L34.0321 0.369705C33.6979 0.42651 33.3653 0.485852 33.0344 0.547658L33.2179 1.53066ZM35.1871 1.19605C35.5132 1.14612 35.8408 1.09866 36.1699 1.05375L36.0347 0.0629301C35.7002 0.10858 35.3672 0.156818 35.0357 0.207574L35.1871 1.19605ZM37.1618 0.926729C37.4903 0.887419 37.8202 0.850667 38.1515 0.81654L38.0491 -0.178197C37.7122 -0.143505 37.3769 -0.106145 37.043 -0.0661856L37.1618 0.926729ZM39.1426 0.722717C39.4744 0.694074 39.8076 0.668082 40.1421 0.644807L40.0727 -0.352781C39.7326 -0.329119 39.3939 -0.302696 39.0566 -0.273576L39.1426 0.722717ZM41.1319 0.584139C41.4629 0.566596 41.7951 0.55173 42.1286 0.539605L42.0923 -0.459735C41.7532 -0.447407 41.4154 -0.432294 41.079 -0.414458L41.1319 0.584139ZM43.1283 0.511603C43.4579 0.505119 43.7887 0.50133 44.1207 0.500293L44.1176 -0.499702C43.7801 -0.498648 43.4437 -0.494796 43.1086 -0.488203L43.1283 0.511603ZM45.1204 0.505498C45.4515 0.50998 45.7838 0.517218 46.1172 0.527269L46.1473 -0.472277C45.8084 -0.482495 45.4705 -0.489854 45.1339 -0.494411L45.1204 0.505498ZM47.1104 0.565426C47.4426 0.580936 47.7759 0.599255 48.1102 0.620438L48.1735 -0.377561C47.8336 -0.399095 47.4948 -0.417718 47.1571 -0.433485L47.1104 0.565426ZM49.1023 0.691494C49.4317 0.717813 49.7621 0.746928 50.0935 0.778891L50.1895 -0.216491C49.8527 -0.24898 49.5168 -0.278576 49.1819 -0.305329L49.1023 0.691494ZM51.0908 0.883374C51.4183 0.92042 51.7468 0.960264 52.0762 1.00296L52.2048 0.0112477C51.8699 -0.0321402 51.5361 -0.0726364 51.2032 -0.11029L51.0908 0.883374ZM53.0627 1.13895C53.3925 1.18713 53.7231 1.23818 54.0547 1.29215L54.2154 0.305143C53.8784 0.250302 53.5424 0.198422 53.2073 0.149455L53.0627 1.13895ZM55.0321 1.45927C55.3576 1.51761 55.6839 1.57877 56.0111 1.64281L56.2032 0.661427C55.8708 0.596371 55.5392 0.534229 55.2085 0.474956L55.0321 1.45927ZM56.9952 1.84358C57.3171 1.91194 57.6399 1.98311 57.9634 2.05711L58.1864 1.08229C57.8578 1.00712 57.5299 0.934834 57.2029 0.865385L56.9952 1.84358ZM58.9324 2.28673C59.2561 2.36611 59.5806 2.44835 59.9059 2.5335L60.1591 1.5661C59.8289 1.47964 59.4993 1.39612 59.1705 1.3155L58.9324 2.28673ZM60.8644 2.79228C61.1826 2.88077 61.5014 2.97204 61.8209 3.06615L62.1034 2.1069C61.7791 2.01137 61.4554 1.9187 61.1324 1.82885L60.8644 2.79228ZM62.7814 3.357C63.097 3.45519 63.4133 3.55616 63.7303 3.65994L64.0414 2.70959C63.7198 2.60427 63.3988 2.5018 63.0784 2.40213L62.7814 3.357ZM64.6718 3.97592C64.9862 4.08401 65.3013 4.19489 65.617 4.30859L65.9559 3.36776C65.6356 3.25241 65.3159 3.13992 64.9969 3.03023L64.6718 3.97592ZM66.5568 4.65481C66.8644 4.77066 67.1726 4.8892 67.4813 5.01046L67.8469 4.07968C67.5338 3.95671 67.2213 3.83648 66.9092 3.71897L66.5568 4.65481ZM68.4091 5.38244C68.7189 5.50918 69.0292 5.63867 69.34 5.77096L69.7316 4.85081C69.4165 4.7167 69.1018 4.58541 68.7877 4.4569L68.4091 5.38244ZM70.2466 6.16404C70.5489 6.29757 70.8517 6.43374 71.155 6.5726L71.5713 5.66336C71.264 5.52264 70.957 5.38462 70.6506 5.24928L70.2466 6.16404ZM72.0663 6.99725C72.2184 7.06937 72.3707 7.14217 72.523 7.21566L72.9575 6.31496C72.8031 6.24051 72.6489 6.16675 72.4947 6.09367L72.0663 6.99725Z" fill="#D32C26"/>
</svg>
