<svg width="78" height="25" viewBox="0 0 78 25" fill="none" xmlns="http://www.w3.org/2000/svg">
<path d="M77.8784 10.7466C78.1438 10.6703 78.2971 10.3933 78.2208 10.1279L76.9774 5.80307C76.9011 5.53768 76.6241 5.38439 76.3587 5.46069C76.0933 5.53699 75.94 5.81398 76.0163 6.07938L77.1215 9.92365L73.2773 11.0289C73.0119 11.1052 72.8586 11.3822 72.9349 11.6476C73.0112 11.913 73.2882 12.0663 73.5536 11.99L77.8784 10.7466ZM1.1703 25.0211C1.25082 24.8853 1.33307 24.7487 1.41705 24.6113L0.563853 24.0897C0.477558 24.2309 0.392995 24.3713 0.31017 24.511L1.1703 25.0211ZM1.94165 23.7782C2.11467 23.5112 2.29392 23.2417 2.47938 22.9701L1.65355 22.4062C1.4636 22.6843 1.27987 22.9605 1.1024 23.2345L1.94165 23.7782ZM3.04556 22.1616C3.23214 21.9016 3.42421 21.6401 3.62176 21.3773L2.82239 20.7764C2.62046 21.0451 2.42404 21.3125 2.23314 21.5785L3.04556 22.1616ZM4.22133 20.5973C4.42049 20.3438 4.62461 20.0895 4.83368 19.8345L4.06036 19.2005C3.84693 19.4608 3.63848 19.7205 3.43506 19.9794L4.22133 20.5973ZM5.46406 19.0814C5.67423 18.8354 5.88894 18.589 6.10817 18.3424L5.36088 17.6779C5.13726 17.9294 4.91821 18.1808 4.70376 18.4318L5.46406 19.0814ZM6.76774 17.6151C6.98777 17.3772 7.21198 17.1393 7.44036 16.9017L6.71935 16.2088C6.48652 16.451 6.25792 16.6936 6.03355 16.9362L6.76774 17.6151ZM8.12801 16.1997C8.35702 15.9703 8.58992 15.7413 8.82668 15.5129L8.13242 14.7932C7.89112 15.026 7.65375 15.2593 7.42032 15.4932L8.12801 16.1997ZM9.54156 14.8362C9.77887 14.6158 10.0198 14.396 10.2644 14.1772L9.5975 13.432C9.3483 13.655 9.10278 13.8789 8.86095 14.1036L9.54156 14.8362ZM11.0057 13.5261C11.2508 13.3149 11.4992 13.1047 11.7511 12.8957L11.1124 12.1262C10.8558 12.3392 10.6026 12.5534 10.3529 12.7686L11.0057 13.5261ZM12.5169 12.272C12.7696 12.0701 13.0257 11.8693 13.2849 11.67L12.6752 10.8773C12.4111 11.0804 12.1502 11.285 11.8927 11.4908L12.5169 12.272ZM14.0707 11.0772C14.332 10.8839 14.5964 10.6921 14.8638 10.5019L14.2842 9.68697C14.0117 9.88085 13.7422 10.0763 13.476 10.2733L14.0707 11.0772ZM15.6686 9.94076C15.9382 9.75654 16.2107 9.57399 16.4862 9.39323L15.9377 8.55711C15.6569 8.74134 15.3791 8.9274 15.1044 9.11514L15.6686 9.94076ZM17.3088 8.86457C17.5858 8.69017 17.8658 8.51762 18.1486 8.34706L17.6321 7.49076C17.3438 7.66463 17.0585 7.84051 16.7761 8.01827L17.3088 8.86457ZM18.9895 7.85068C19.2719 7.68754 19.5571 7.52641 19.8451 7.36741L19.3616 6.49202C19.0681 6.65414 18.7773 6.81841 18.4894 6.98473L18.9895 7.85068ZM20.7089 6.90112C20.9964 6.74952 21.2864 6.60008 21.5791 6.45288L21.1297 5.55952C20.8313 5.70962 20.5355 5.86202 20.2424 6.01659L20.7089 6.90112ZM22.4648 6.01816C22.7569 5.87829 23.0516 5.74069 23.3487 5.60547L22.9344 4.6953C22.6314 4.83323 22.3309 4.97356 22.0329 5.1162L22.4648 6.01816ZM24.2468 5.20727C24.5461 5.07806 24.8478 4.95127 25.152 4.82701L24.7738 3.90129C24.4635 4.02805 24.1557 4.15737 23.8504 4.28916L24.2468 5.20727ZM26.0609 4.46603C26.3663 4.34823 26.6739 4.23299 26.984 4.1204L26.6426 3.18046C26.3263 3.29533 26.0124 3.41289 25.701 3.53306L26.0609 4.46603ZM27.9052 3.79607C28.2135 3.69096 28.5239 3.58849 28.8366 3.48873L28.5327 2.53603C28.2137 2.63781 27.8969 2.74235 27.5825 2.84959L27.9052 3.79607ZM29.7779 3.19877C30.0884 3.10651 30.4009 3.01695 30.7157 2.93015L30.4498 1.96614C30.1287 2.05469 29.8098 2.14607 29.4931 2.2402L29.7779 3.19877ZM31.6662 2.67818C31.9818 2.59786 32.2995 2.52034 32.6193 2.4457L32.392 1.47187C32.0657 1.54803 31.7416 1.62712 31.4196 1.70906L31.6662 2.67818ZM33.5733 2.23293C33.8933 2.16487 34.2153 2.09969 34.5393 2.03748L34.3508 1.05542C34.0202 1.11888 33.6917 1.18537 33.3652 1.25481L33.5733 2.23293ZM35.5012 1.8626C35.8215 1.80761 36.1436 1.75553 36.4677 1.70641L36.3179 0.7177C35.9873 0.7678 35.6587 0.820929 35.332 0.877016L35.5012 1.8626ZM37.4456 1.56804C37.7664 1.52587 38.0889 1.48662 38.4133 1.45034L38.3021 0.456535C37.9714 0.493531 37.6424 0.533565 37.3153 0.576569L37.4456 1.56804ZM39.3885 1.35082C39.7153 1.32065 40.044 1.2935 40.3744 1.26945L40.3018 0.272086C39.9649 0.29661 39.6298 0.324288 39.2966 0.355052L39.3885 1.35082ZM41.3453 1.20801C41.6702 1.19053 41.9969 1.17603 42.3252 1.16459L42.2904 0.165199C41.9558 0.17686 41.6228 0.191633 41.2916 0.209455L41.3453 1.20801ZM43.3153 1.13948C43.6377 1.13435 43.9618 1.13217 44.2874 1.13298L44.2899 0.132981C43.9581 0.132154 43.628 0.134382 43.2994 0.139609L43.3153 1.13948ZM45.2681 1.14445C45.5966 1.1513 45.9267 1.16121 46.2584 1.17423L46.2976 0.174994C45.9598 0.16174 45.6236 0.15165 45.289 0.144667L45.2681 1.14445ZM47.2305 1.22107C47.5549 1.23959 47.8808 1.26109 48.2082 1.28561L48.2829 0.288401C47.9496 0.26344 47.6178 0.241554 47.2875 0.222692L47.2305 1.22107ZM49.1948 1.36829C49.5174 1.39819 49.8413 1.43103 50.1667 1.46684L50.2761 0.472845C49.9451 0.436404 49.6154 0.402993 49.2871 0.372562L49.1948 1.36829ZM51.1377 1.58209C51.4627 1.62347 51.7891 1.66781 52.1169 1.71518L52.2599 0.725462C51.9266 0.677291 51.5946 0.632185 51.264 0.590097L51.1377 1.58209ZM53.0894 1.86397C53.4084 1.91548 53.7286 1.96984 54.0502 2.02711L54.2255 1.0426C53.8987 0.984395 53.5731 0.929126 53.2488 0.876755L53.0894 1.86397ZM55.0186 2.20766C55.3423 2.27069 55.6672 2.33665 55.9934 2.4056L56.2002 1.42721C55.8688 1.35717 55.5386 1.29015 55.2097 1.2261L55.0186 2.20766ZM56.9408 2.61347C57.2578 2.68555 57.576 2.76045 57.8953 2.83819L58.1319 1.86657C57.8076 1.78763 57.4845 1.71157 57.1626 1.63836L56.9408 2.61347ZM58.8568 3.08C59.1722 3.16186 59.4888 3.2465 59.8065 3.33395L60.0719 2.36981C59.7495 2.28107 59.4282 2.19516 59.108 2.11207L58.8568 3.08ZM60.7442 3.59935C61.0579 3.69055 61.3726 3.78448 61.6884 3.88119L61.9812 2.92502C61.6609 2.82693 61.3416 2.73164 61.0234 2.63912L60.7442 3.59935ZM62.639 4.17965C62.9464 4.27853 63.2547 4.38002 63.5641 4.48417L63.8831 3.53645C63.5696 3.43087 63.2569 3.32796 62.9453 3.2277L62.639 4.17965ZM64.4886 4.80236C64.7978 4.91106 65.108 5.0224 65.4191 5.13643L65.7632 4.19749C65.448 4.08196 65.1337 3.96913 64.8203 3.85897L64.4886 4.80236ZM66.355 5.48639C66.6551 5.60085 66.9561 5.71781 67.258 5.83727L67.626 4.90742C67.3202 4.78644 67.0153 4.66799 66.7113 4.55204L66.355 5.48639ZM68.1664 6.20323C68.4701 6.32775 68.7747 6.45482 69.0801 6.58445L69.4708 5.6639C69.1616 5.53269 68.8533 5.40406 68.5458 5.27799L68.1664 6.20323ZM69.9983 6.98067C70.2925 7.10971 70.5874 7.24113 70.8832 7.37495L71.2954 6.46386C70.9962 6.32848 70.6977 6.1955 70.4001 6.06492L69.9983 6.98067ZM71.7729 7.78363C72.0703 7.92227 72.3685 8.06334 72.6675 8.20686L73.1002 7.30533C72.7978 7.1602 72.4962 7.01753 72.1954 6.87729L71.7729 7.78363ZM73.5669 8.64477C73.8562 8.78765 74.1463 8.93283 74.4372 9.08031L74.8894 8.18842C74.5954 8.03935 74.3022 7.89259 74.0096 7.74813L73.5669 8.64477ZM75.3062 9.52674C75.5967 9.67784 75.8878 9.83124 76.1797 9.98697L76.6504 9.10469C76.3555 8.94735 76.0613 8.79233 75.7678 8.63963L75.3062 9.52674ZM77.0575 10.4611C77.2042 10.5413 77.3511 10.6221 77.4981 10.7035L77.9823 9.82856C77.8338 9.74635 77.6854 9.66474 77.5372 9.58372L77.0575 10.4611Z" fill="#D32C26"/>
</svg>
